<?xml version="1.0" encoding="UTF-8" standalone="no"?>
<!-- Created with Inkscape (http://www.inkscape.org/) -->

<svg
   xmlns:dc="http://purl.org/dc/elements/1.1/"
   xmlns:cc="http://creativecommons.org/ns#"
   xmlns:rdf="http://www.w3.org/1999/02/22-rdf-syntax-ns#"
   xmlns:svg="http://www.w3.org/2000/svg"
   xmlns="http://www.w3.org/2000/svg"
   xmlns:sodipodi="http://sodipodi.sourceforge.net/DTD/sodipodi-0.dtd"
   xmlns:inkscape="http://www.inkscape.org/namespaces/inkscape"
   width="25"
   height="25"
   id="svg3068"
   version="1.1"
   inkscape:version="0.48.1 r9760"
   sodipodi:docname="upload.svg">
  <defs
     id="defs3070" />
  <sodipodi:namedview
     id="base"
     pagecolor="#ffffff"
     bordercolor="#666666"
     borderopacity="1.0"
     inkscape:pageopacity="0.0"
     inkscape:pageshadow="2"
     inkscape:zoom="15.839192"
     inkscape:cx="6.9422888"
     inkscape:cy="20.645346"
     inkscape:document-units="px"
     inkscape:current-layer="layer1"
     showgrid="true"
     inkscape:window-width="1230"
     inkscape:window-height="983"
     inkscape:window-x="150"
     inkscape:window-y="76"
     inkscape:window-maximized="0">
    <inkscape:grid
       type="xygrid"
       id="grid3076"
       empspacing="5"
       visible="true"
       enabled="true"
       snapvisiblegridlinesonly="true" />
  </sodipodi:namedview>
  <metadata
     id="metadata3073">
    <rdf:RDF>
      <cc:Work
         rdf:about="">
        <dc:format>image/svg+xml</dc:format>
        <dc:type
           rdf:resource="http://purl.org/dc/dcmitype/StillImage" />
        <dc:title></dc:title>
        <dc:creator>
          <cc:Agent>
            <dc:title>Pascal de Bruijn</dc:title>
          </cc:Agent>
        </dc:creator>
        <dc:rights>
          <cc:Agent>
            <dc:title></dc:title>
          </cc:Agent>
        </dc:rights>
        <cc:license
           rdf:resource="http://creativecommons.org/licenses/by-sa/3.0/" />
      </cc:Work>
      <cc:License
         rdf:about="http://creativecommons.org/licenses/by-sa/3.0/">
        <cc:permits
           rdf:resource="http://creativecommons.org/ns#Reproduction" />
        <cc:permits
           rdf:resource="http://creativecommons.org/ns#Distribution" />
        <cc:requires
           rdf:resource="http://creativecommons.org/ns#Notice" />
        <cc:requires
           rdf:resource="http://creativecommons.org/ns#Attribution" />
        <cc:permits
           rdf:resource="http://creativecommons.org/ns#DerivativeWorks" />
        <cc:requires
           rdf:resource="http://creativecommons.org/ns#ShareAlike" />
      </cc:License>
    </rdf:RDF>
  </metadata>
  <g
     inkscape:label="Layer 1"
     inkscape:groupmode="layer"
     id="layer1"
     transform="translate(0,-1027.3622)">
    <g
       transform="translate(-192,1023.3622)"
       id="g3045">
      <rect
         y="6.5"
         x="194.5"
         height="20"
         width="20"
         id="rect3073-7"
         style="fill:none;stroke:#000000;stroke-width:1;stroke-linecap:butt;stroke-linejoin:round;stroke-miterlimit:4;stroke-opacity:1;stroke-dasharray:none" />
      <path
         inkscape:connector-curvature="0"
         id="path3140"
         d="m 197.5,14.5 4,0 0,-3 5,5 -5,5 0,-3 -4,0 z"
         style="fill:none;stroke:#000000;stroke-width:1;stroke-linecap:butt;stroke-linejoin:miter;stroke-opacity:1" />
      <path
         transform="matrix(0.62812959,0,0,1.2562593,50.368866,-2.6758748)"
         d="m 253.43015,11.284195 c 0,0.02455 -0.0398,0.04445 -0.0889,0.04445 -0.0491,0 -0.0889,-0.0199 -0.0889,-0.04445 0,-0.02455 0.0398,-0.04445 0.0889,-0.04445 0.0491,0 0.0889,0.0199 0.0889,0.04445 z"
         sodipodi:ry="0.044453632"
         sodipodi:rx="0.088907264"
         sodipodi:cy="11.284195"
         sodipodi:cx="253.34125"
         id="path3118-9-9"
         style="fill:none;stroke:#000000;stroke-width:1;stroke-linecap:butt;stroke-linejoin:round;stroke-miterlimit:4;stroke-opacity:1;stroke-dasharray:none"
         sodipodi:type="arc" />
      <path
         transform="matrix(0.62812959,0,0,1.2562593,52.368866,-2.6758748)"
         d="m 253.43015,11.284195 c 0,0.02455 -0.0398,0.04445 -0.0889,0.04445 -0.0491,0 -0.0889,-0.0199 -0.0889,-0.04445 0,-0.02455 0.0398,-0.04445 0.0889,-0.04445 0.0491,0 0.0889,0.0199 0.0889,0.04445 z"
         sodipodi:ry="0.044453632"
         sodipodi:rx="0.088907264"
         sodipodi:cy="11.284195"
         sodipodi:cx="253.34125"
         id="path3118-9-0"
         style="fill:none;stroke:#000000;stroke-width:1;stroke-linecap:butt;stroke-linejoin:round;stroke-miterlimit:4;stroke-opacity:1;stroke-dasharray:none"
         sodipodi:type="arc" />
      <path
         transform="matrix(0.62812959,0,0,1.2562593,50.368866,-0.67587485)"
         d="m 253.43015,11.284195 c 0,0.02455 -0.0398,0.04445 -0.0889,0.04445 -0.0491,0 -0.0889,-0.0199 -0.0889,-0.04445 0,-0.02455 0.0398,-0.04445 0.0889,-0.04445 0.0491,0 0.0889,0.0199 0.0889,0.04445 z"
         sodipodi:ry="0.044453632"
         sodipodi:rx="0.088907264"
         sodipodi:cy="11.284195"
         sodipodi:cx="253.34125"
         id="path3118-9-99"
         style="fill:none;stroke:#000000;stroke-width:1;stroke-linecap:butt;stroke-linejoin:round;stroke-miterlimit:4;stroke-opacity:1;stroke-dasharray:none"
         sodipodi:type="arc" />
      <path
         transform="matrix(0.62812959,0,0,1.2562593,52.368866,-0.67587485)"
         d="m 253.43015,11.284195 c 0,0.02455 -0.0398,0.04445 -0.0889,0.04445 -0.0491,0 -0.0889,-0.0199 -0.0889,-0.04445 0,-0.02455 0.0398,-0.04445 0.0889,-0.04445 0.0491,0 0.0889,0.0199 0.0889,0.04445 z"
         sodipodi:ry="0.044453632"
         sodipodi:rx="0.088907264"
         sodipodi:cy="11.284195"
         sodipodi:cx="253.34125"
         id="path3118-9-4"
         style="fill:none;stroke:#000000;stroke-width:1;stroke-linecap:butt;stroke-linejoin:round;stroke-miterlimit:4;stroke-opacity:1;stroke-dasharray:none"
         sodipodi:type="arc" />
      <path
         transform="matrix(0.62812959,0,0,1.2562593,50.368866,1.3241252)"
         d="m 253.43015,11.284195 c 0,0.02455 -0.0398,0.04445 -0.0889,0.04445 -0.0491,0 -0.0889,-0.0199 -0.0889,-0.04445 0,-0.02455 0.0398,-0.04445 0.0889,-0.04445 0.0491,0 0.0889,0.0199 0.0889,0.04445 z"
         sodipodi:ry="0.044453632"
         sodipodi:rx="0.088907264"
         sodipodi:cy="11.284195"
         sodipodi:cx="253.34125"
         id="path3118-9-5"
         style="fill:none;stroke:#000000;stroke-width:1;stroke-linecap:butt;stroke-linejoin:round;stroke-miterlimit:4;stroke-opacity:1;stroke-dasharray:none"
         sodipodi:type="arc" />
      <path
         transform="matrix(0.62812959,0,0,1.2562593,52.368866,1.3241252)"
         d="m 253.43015,11.284195 c 0,0.02455 -0.0398,0.04445 -0.0889,0.04445 -0.0491,0 -0.0889,-0.0199 -0.0889,-0.04445 0,-0.02455 0.0398,-0.04445 0.0889,-0.04445 0.0491,0 0.0889,0.0199 0.0889,0.04445 z"
         sodipodi:ry="0.044453632"
         sodipodi:rx="0.088907264"
         sodipodi:cy="11.284195"
         sodipodi:cx="253.34125"
         id="path3118-9-1"
         style="fill:none;stroke:#000000;stroke-width:1;stroke-linecap:butt;stroke-linejoin:round;stroke-miterlimit:4;stroke-opacity:1;stroke-dasharray:none"
         sodipodi:type="arc" />
      <path
         transform="matrix(0.62812959,0,0,1.2562593,50.368866,3.3241252)"
         d="m 253.43015,11.284195 c 0,0.02455 -0.0398,0.04445 -0.0889,0.04445 -0.0491,0 -0.0889,-0.0199 -0.0889,-0.04445 0,-0.02455 0.0398,-0.04445 0.0889,-0.04445 0.0491,0 0.0889,0.0199 0.0889,0.04445 z"
         sodipodi:ry="0.044453632"
         sodipodi:rx="0.088907264"
         sodipodi:cy="11.284195"
         sodipodi:cx="253.34125"
         id="path3118-9-03"
         style="fill:none;stroke:#000000;stroke-width:1;stroke-linecap:butt;stroke-linejoin:round;stroke-miterlimit:4;stroke-opacity:1;stroke-dasharray:none"
         sodipodi:type="arc" />
      <path
         transform="matrix(0.62812959,0,0,1.2562593,52.368866,3.3241252)"
         d="m 253.43015,11.284195 c 0,0.02455 -0.0398,0.04445 -0.0889,0.04445 -0.0491,0 -0.0889,-0.0199 -0.0889,-0.04445 0,-0.02455 0.0398,-0.04445 0.0889,-0.04445 0.0491,0 0.0889,0.0199 0.0889,0.04445 z"
         sodipodi:ry="0.044453632"
         sodipodi:rx="0.088907264"
         sodipodi:cy="11.284195"
         sodipodi:cx="253.34125"
         id="path3118-9-7"
         style="fill:none;stroke:#000000;stroke-width:1;stroke-linecap:butt;stroke-linejoin:round;stroke-miterlimit:4;stroke-opacity:1;stroke-dasharray:none"
         sodipodi:type="arc" />
      <path
         transform="matrix(0.62812959,0,0,1.2562593,50.368866,5.3241252)"
         d="m 253.43015,11.284195 c 0,0.02455 -0.0398,0.04445 -0.0889,0.04445 -0.0491,0 -0.0889,-0.0199 -0.0889,-0.04445 0,-0.02455 0.0398,-0.04445 0.0889,-0.04445 0.0491,0 0.0889,0.0199 0.0889,0.04445 z"
         sodipodi:ry="0.044453632"
         sodipodi:rx="0.088907264"
         sodipodi:cy="11.284195"
         sodipodi:cx="253.34125"
         id="path3118-9-8"
         style="fill:none;stroke:#000000;stroke-width:1;stroke-linecap:butt;stroke-linejoin:round;stroke-miterlimit:4;stroke-opacity:1;stroke-dasharray:none"
         sodipodi:type="arc" />
      <path
         transform="matrix(0.62812959,0,0,1.2562593,52.368866,5.3241252)"
         d="m 253.43015,11.284195 c 0,0.02455 -0.0398,0.04445 -0.0889,0.04445 -0.0491,0 -0.0889,-0.0199 -0.0889,-0.04445 0,-0.02455 0.0398,-0.04445 0.0889,-0.04445 0.0491,0 0.0889,0.0199 0.0889,0.04445 z"
         sodipodi:ry="0.044453632"
         sodipodi:rx="0.088907264"
         sodipodi:cy="11.284195"
         sodipodi:cx="253.34125"
         id="path3118-9-86"
         style="fill:none;stroke:#000000;stroke-width:1;stroke-linecap:butt;stroke-linejoin:round;stroke-miterlimit:4;stroke-opacity:1;stroke-dasharray:none"
         sodipodi:type="arc" />
      <path
         transform="matrix(0.62812959,0,0,1.2562593,50.368866,7.3241252)"
         d="m 253.43015,11.284195 c 0,0.02455 -0.0398,0.04445 -0.0889,0.04445 -0.0491,0 -0.0889,-0.0199 -0.0889,-0.04445 0,-0.02455 0.0398,-0.04445 0.0889,-0.04445 0.0491,0 0.0889,0.0199 0.0889,0.04445 z"
         sodipodi:ry="0.044453632"
         sodipodi:rx="0.088907264"
         sodipodi:cy="11.284195"
         sodipodi:cx="253.34125"
         id="path3118-9-04"
         style="fill:none;stroke:#000000;stroke-width:1;stroke-linecap:butt;stroke-linejoin:round;stroke-miterlimit:4;stroke-opacity:1;stroke-dasharray:none"
         sodipodi:type="arc" />
      <path
         transform="matrix(0.62812959,0,0,1.2562593,52.368866,7.3241252)"
         d="m 253.43015,11.284195 c 0,0.02455 -0.0398,0.04445 -0.0889,0.04445 -0.0491,0 -0.0889,-0.0199 -0.0889,-0.04445 0,-0.02455 0.0398,-0.04445 0.0889,-0.04445 0.0491,0 0.0889,0.0199 0.0889,0.04445 z"
         sodipodi:ry="0.044453632"
         sodipodi:rx="0.088907264"
         sodipodi:cy="11.284195"
         sodipodi:cx="253.34125"
         id="path3118-9-6"
         style="fill:none;stroke:#000000;stroke-width:1;stroke-linecap:butt;stroke-linejoin:round;stroke-miterlimit:4;stroke-opacity:1;stroke-dasharray:none"
         sodipodi:type="arc" />
    </g>
  </g>
</svg>
